<?xml version="1.0" standalone="no"?>
<!DOCTYPE svg PUBLIC "-//W3C//DTD SVG 20010904//EN"
 "http://www.w3.org/TR/2001/REC-SVG-20010904/DTD/svg10.dtd">
<svg version="1.0" xmlns="http://www.w3.org/2000/svg"
 width="1163.000000pt" height="1280.000000pt" viewBox="0 0 1163.000000 1280.000000"
 preserveAspectRatio="xMidYMid meet">
<metadata>
Created by potrace 1.15, written by Peter Selinger 2001-2017
</metadata>
<g transform="translate(0.000000,1280.000000) scale(0.100000,-0.100000)"
fill="#000000" stroke="none">
<path d="M4320 12785 c-36 -8 -128 -33 -205 -54 -77 -22 -187 -52 -245 -66
-123 -31 -167 -55 -254 -136 -102 -95 -113 -137 -77 -291 19 -80 41 -269 41
-353 l0 -40 -127 -23 c-141 -25 -173 -39 -173 -78 0 -68 39 -84 201 -84 l119
0 0 -109 c0 -60 -5 -122 -10 -136 -15 -40 -112 -129 -172 -159 -29 -15 -62
-34 -74 -44 -35 -29 -75 -88 -86 -129 -14 -51 -24 -61 -67 -69 -62 -10 -70
-14 -128 -65 -94 -82 -228 -148 -333 -163 -25 -4 -56 -12 -71 -17 -14 -5 -81
-73 -150 -151 -132 -151 -221 -229 -308 -273 -76 -38 -101 -66 -101 -113 0
-21 -6 -46 -13 -56 -17 -23 -76 -35 -174 -36 -45 0 -93 -4 -108 -10 -14 -5
-66 -39 -116 -74 -116 -84 -215 -144 -414 -249 -382 -203 -376 -198 -539 -391
-115 -136 -176 -217 -199 -261 -22 -44 -159 -424 -287 -795 -62 -179 -123
-349 -136 -379 -13 -29 -24 -62 -24 -72 0 -10 30 -43 69 -76 38 -32 70 -60 70
-63 1 -3 -36 -50 -80 -105 -93 -114 -123 -171 -140 -269 -19 -109 -8 -178 38
-243 61 -86 63 -93 51 -140 -11 -39 -10 -45 23 -98 75 -125 124 -154 204 -120
19 7 63 19 98 26 90 17 116 49 234 285 l98 196 5 179 c3 120 9 182 17 190 7 7
33 19 59 28 66 22 83 50 101 167 39 256 86 381 240 640 99 167 152 270 170
329 6 23 22 37 67 59 39 20 66 41 82 68 17 26 58 60 122 102 157 103 260 153
418 205 168 55 362 107 369 99 17 -16 28 -159 29 -348 1 -202 -1 -219 -22
-272 -13 -32 -46 -83 -77 -117 -58 -66 -58 -65 -74 -184 -8 -59 -22 -100 -60
-175 -27 -53 -70 -164 -97 -246 -70 -218 -102 -259 -339 -442 -161 -124 -454
-423 -681 -694 -140 -168 -175 -241 -140 -295 14 -21 24 -25 66 -25 31 0 70 9
106 25 108 48 155 32 314 -107 132 -115 181 -146 304 -192 118 -44 353 -106
403 -106 l36 0 -6 -252 c-10 -450 -81 -865 -173 -1024 -65 -111 -85 -163 -110
-280 -22 -106 -64 -232 -116 -353 -11 -25 -38 -95 -60 -156 -55 -151 -122
-289 -204 -425 -82 -135 -122 -208 -278 -508 -134 -258 -178 -364 -240 -574
-25 -84 -101 -324 -169 -533 -188 -574 -216 -667 -227 -767 -6 -50 -15 -99
-21 -109 -5 -11 -34 -30 -63 -43 -98 -44 -326 -301 -326 -368 0 -7 -17 -43
-39 -80 l-39 -66 62 -49 c143 -114 320 -214 384 -216 29 -1 41 6 73 41 l37 43
12 -36 c9 -27 25 -45 61 -66 30 -19 75 -64 118 -119 39 -49 86 -100 104 -114
46 -35 142 -81 235 -113 75 -25 81 -25 257 -19 215 8 306 20 360 46 54 26 105
76 105 102 0 54 -142 142 -284 177 -63 16 -87 27 -111 53 -30 31 -178 254
-284 427 -46 76 -121 240 -121 265 0 27 31 38 152 56 68 11 131 22 140 25 23
9 49 74 142 359 67 203 103 293 188 471 58 121 113 247 123 280 9 32 28 80 41
106 13 26 62 141 110 256 130 315 147 344 290 494 74 77 151 172 194 236 114
169 232 418 323 678 20 55 56 149 81 208 25 60 89 226 142 370 98 267 166 433
182 449 11 11 86 -105 128 -196 25 -56 26 -62 15 -121 -16 -89 -14 -143 9
-201 43 -114 115 -444 126 -582 l7 -80 -41 -21 c-60 -30 -88 -85 -106 -206 -8
-55 -24 -129 -35 -165 -11 -36 -38 -139 -61 -229 -22 -90 -56 -203 -75 -252
-40 -101 -80 -289 -94 -435 -7 -82 -16 -118 -45 -183 -20 -45 -47 -127 -61
-184 -41 -162 -131 -465 -201 -679 l-65 -197 43 -38 c100 -88 158 -150 158
-172 0 -12 -34 -111 -76 -219 -76 -196 -76 -198 -71 -272 5 -70 36 -183 56
-203 29 -29 363 -34 424 -6 27 12 33 25 39 79 l3 25 125 -1 c121 -1 130 -2
268 -47 124 -41 153 -47 227 -47 173 0 511 69 661 135 159 70 101 205 -89 205
-26 0 -91 5 -145 11 -120 13 -187 42 -295 128 -81 64 -97 85 -79 103 13 13
137 39 156 32 8 -3 17 -20 20 -38 16 -84 183 -166 337 -166 65 0 90 14 180
101 l67 64 7 140 c6 128 16 209 28 221 2 2 31 8 63 12 l59 7 30 61 c17 33 43
116 58 182 72 315 194 665 420 1212 85 206 155 402 212 590 78 258 171 450
335 695 106 158 207 331 230 393 26 69 101 212 165 313 66 103 207 300 212
295 2 -2 -1 -114 -7 -247 -8 -150 -10 -469 -8 -829 l4 -585 33 -80 c40 -98
267 -577 443 -935 191 -390 237 -452 455 -607 106 -76 125 -101 138 -183 14
-90 37 -166 71 -235 49 -99 64 -195 74 -465 l9 -235 -71 -119 c-96 -162 -115
-181 -253 -250 -172 -87 -243 -164 -211 -228 21 -43 60 -52 226 -56 254 -6
531 36 678 103 67 31 130 89 174 162 18 29 37 53 44 53 6 0 17 -13 24 -30 14
-35 13 -34 48 -16 35 18 75 62 97 105 l17 34 62 -7 c76 -8 93 3 164 102 l47
67 -1 130 c-1 186 -29 284 -215 747 -55 137 -126 328 -158 426 -67 202 -99
271 -165 356 -25 32 -57 91 -72 130 -34 89 -90 229 -188 468 -42 103 -88 229
-102 280 -35 122 -52 155 -125 235 -118 130 -130 173 -138 518 -7 261 -8 272
-34 339 -36 92 -35 133 13 366 23 107 59 301 80 430 52 305 69 330 166 251 62
-52 158 -102 256 -135 95 -32 119 -32 202 -1 112 42 183 29 288 -54 66 -54 83
-77 111 -155 29 -78 86 -176 107 -184 8 -3 59 -36 112 -74 206 -147 377 -169
416 -53 31 93 23 730 -14 1085 -15 143 -51 355 -164 945 -97 510 -100 528
-100 587 l0 57 115 123 c161 172 433 428 475 446 52 23 156 20 205 -5 105 -55
406 -336 566 -528 80 -95 122 -137 156 -155 48 -25 48 -26 69 -110 11 -47 35
-126 52 -177 18 -50 32 -108 32 -128 0 -46 28 -180 46 -225 8 -19 23 -44 33
-55 10 -11 19 -37 20 -58 2 -50 37 -219 58 -281 13 -41 15 -77 10 -210 -6
-156 -15 -220 -52 -355 -16 -62 -16 -66 9 -200 14 -75 28 -165 32 -201 10 -99
18 -114 57 -106 72 14 65 21 121 -125 77 -202 113 -257 160 -245 40 10 54 70
33 146 -10 33 -17 64 -17 69 0 5 26 7 58 4 36 -3 67 -1 80 6 39 21 154 164
185 231 27 55 31 76 31 150 1 99 -14 134 -62 143 -36 7 -45 29 -67 167 -20
125 -26 144 -69 215 -20 33 -36 64 -36 69 0 5 18 6 40 2 34 -5 44 -2 73 24 19
16 46 30 59 30 14 0 35 11 48 25 39 41 39 117 0 266 -31 118 -33 135 -40 379
-4 140 -11 264 -15 275 -5 11 -18 34 -30 50 -12 17 -41 66 -65 110 -24 44 -56
99 -72 123 -35 51 -69 125 -113 249 -29 82 -52 127 -132 261 -12 20 -26 66
-32 102 -14 89 -76 210 -151 293 -33 38 -72 91 -86 118 -23 46 -28 50 -52 44
-23 -5 -34 2 -69 37 -23 24 -63 72 -90 108 -31 42 -64 73 -95 90 -25 14 -61
45 -80 70 -30 40 -41 47 -99 61 -37 9 -71 19 -77 23 -6 3 -15 30 -22 58 -20
94 -73 163 -235 308 -123 110 -168 140 -211 140 -41 0 -72 27 -80 68 -8 39 -3
40 122 12 100 -22 220 -26 259 -8 29 13 31 21 10 38 -14 11 -14 15 2 33 10 11
45 38 78 60 130 88 184 149 217 247 19 59 22 91 26 356 4 314 -3 405 -38 451
-15 21 -23 53 -29 110 -12 115 -62 206 -76 139 -3 -14 -7 -37 -10 -51 -7 -34
-19 -31 -44 8 -11 17 -26 40 -33 49 -10 14 -10 24 0 52 20 55 -12 106 -67 106
-9 0 -30 14 -47 31 -62 67 -138 70 -206 10 -41 -36 -34 -56 48 -127 35 -31 64
-60 64 -65 0 -25 -125 11 -273 77 -93 42 -159 55 -172 34 -12 -19 -76 -10
-148 21 -46 20 -96 33 -138 36 -58 5 -69 3 -88 -16 -11 -11 -21 -32 -21 -44 0
-28 -29 -57 -57 -57 -26 0 -147 -41 -200 -69 -31 -15 -60 -21 -110 -21 -74 0
-82 -4 -179 -85 -52 -44 -44 -43 -224 -35 -73 3 -91 0 -130 -20 -103 -52 -200
-135 -277 -238 -28 -37 -121 -75 -239 -99 -79 -15 -91 -15 -129 -2 -35 13 -48
13 -79 2 -21 -7 -68 -15 -105 -18 -110 -10 -198 -25 -361 -62 -361 -81 -522
-98 -845 -89 -257 7 -386 19 -460 43 -27 9 -120 52 -205 97 -206 108 -326 163
-386 177 -97 23 -117 33 -149 79 -31 45 -39 49 -132 66 -14 3 -31 20 -43 44
-44 86 -194 223 -318 290 -116 63 -81 80 69 34 65 -19 100 -24 156 -22 106 5
146 40 158 140 4 29 16 59 31 77 35 42 32 82 -11 120 -19 17 -35 36 -35 44 0
20 47 61 113 97 63 35 77 56 78 123 1 61 8 72 76 116 67 43 87 78 62 108 -8 9
-48 40 -89 69 -103 72 -115 87 -114 139 1 57 22 87 88 129 83 53 107 103 69
141 -17 18 -44 18 -225 -2 l-58 -6 -79 164 c-44 90 -94 206 -112 257 -36 104
-77 160 -160 212 -43 28 -61 34 -122 36 -40 2 -101 -3 -137 -11z m-516 -1570
c104 -53 186 -103 186 -116 0 -14 -13 -11 -81 20 -35 16 -104 41 -154 56 -107
33 -145 51 -145 69 0 40 80 27 194 -29z m3792 -1142 c43 -64 119 -333 133
-468 9 -90 20 -116 38 -93 13 17 30 71 38 126 10 60 41 92 137 138 l83 39 293
3 292 4 0 -110 0 -110 -117 -22 c-101 -19 -134 -21 -258 -15 l-141 7 -77 -35
c-97 -45 -115 -60 -173 -136 -56 -74 -116 -122 -192 -153 -52 -21 -69 -22
-202 -19 -353 10 -502 7 -559 -13 -111 -38 -191 -147 -191 -258 0 -70 13 -86
96 -119 47 -18 79 -23 154 -24 95 0 95 0 164 43 39 23 76 42 83 42 19 0 16
-24 -7 -45 -36 -33 -23 -138 22 -175 20 -16 20 -20 8 -49 -12 -31 -84 -101
-103 -101 -18 0 -108 -50 -148 -82 -45 -36 -69 -74 -69 -110 0 -37 -55 -122
-99 -152 -130 -90 -567 -166 -880 -153 -152 6 -218 20 -353 73 -121 47 -170
54 -378 53 -223 -1 -224 -2 -228 -62 -2 -32 -9 -50 -20 -56 -9 -5 -65 -18
-124 -30 -144 -29 -226 -59 -252 -94 -16 -21 -18 -32 -10 -45 22 -34 55 -43
142 -36 45 3 82 2 82 -2 -1 -5 -7 -20 -15 -34 -22 -39 -18 -77 14 -123 39 -57
168 -180 211 -202 50 -26 127 -45 183 -45 48 0 56 5 95 58 16 21 31 24 167 37
171 17 203 23 263 54 24 12 45 21 47 19 2 -2 -1 -25 -7 -51 -8 -40 -7 -51 6
-66 12 -14 15 -29 10 -57 -13 -85 53 -99 420 -89 l259 7 -30 -54 c-17 -29 -74
-133 -127 -231 -54 -99 -126 -225 -160 -280 -131 -213 -440 -820 -651 -1277
-64 -140 -209 -444 -322 -674 -250 -512 -381 -798 -445 -976 -190 -521 -255
-717 -343 -1045 -31 -115 -65 -239 -76 -274 -11 -36 -26 -104 -34 -152 -21
-135 -114 -349 -225 -521 -22 -34 -40 -69 -40 -79 0 -10 16 -33 35 -51 29 -25
33 -34 23 -44 -20 -19 -219 -102 -253 -106 -27 -3 -30 0 -33 28 -7 67 141 655
209 833 22 58 76 203 119 321 43 118 110 301 150 405 40 105 108 294 150 420
43 127 95 277 116 335 37 102 38 109 38 235 -1 194 -71 643 -154 995 -21 91
-68 306 -105 478 -36 172 -84 377 -106 455 -72 253 -116 523 -107 661 4 54 14
92 42 156 68 154 70 165 57 239 -7 36 -15 111 -18 166 -7 131 7 189 97 396
150 343 241 587 266 711 9 46 34 133 56 193 113 313 149 453 193 752 13 90 29
181 35 204 10 37 13 40 37 34 48 -12 707 -276 748 -300 59 -33 198 -80 316
-106 154 -34 271 -31 424 8 247 65 467 105 975 178 173 24 329 49 345 53 58
16 68 81 36 217 -29 120 -79 270 -118 357 -20 43 -33 84 -29 93 9 26 48 14 72
-22z m934 -631 c0 -5 -10 -17 -22 -28 -12 -10 -19 -14 -16 -9 3 6 8 18 11 28
6 17 27 24 27 9z m257 -7 c135 -29 445 -113 455 -123 17 -17 4 -26 -89 -67
-48 -21 -116 -56 -151 -77 -118 -70 -189 -72 -272 -7 -83 66 -102 105 -90 185
18 112 25 116 147 89z m-337 -70 c0 -23 -61 -87 -99 -102 -41 -17 -211 -30
-211 -16 0 22 186 103 238 103 16 0 37 7 48 15 24 18 24 18 24 0z m135 -163
c6 -4 21 -22 34 -40 34 -48 78 -68 214 -97 l28 -6 -69 -77 c-38 -42 -138 -162
-223 -267 -84 -104 -190 -236 -236 -292 -113 -141 -131 -179 -158 -331 -31
-183 -46 -358 -56 -661 -5 -172 -13 -319 -17 -327 -6 -10 -23 0 -71 42 -78 68
-159 110 -251 129 -39 8 -87 23 -108 33 -110 56 -497 263 -506 272 -8 8 -6 14
4 20 46 29 195 -18 322 -102 107 -70 306 -170 322 -161 62 36 219 150 227 165
20 37 -6 38 -59 2 -29 -19 -85 -53 -124 -74 l-71 -38 -90 44 c-49 25 -128 70
-175 101 -153 100 -277 136 -369 107 -51 -16 -52 -16 -107 9 -31 14 -56 29
-56 33 0 4 29 53 65 109 60 94 77 135 57 135 -11 0 -43 -37 -66 -75 -29 -47
-68 -85 -88 -85 -42 0 -14 43 192 300 136 171 164 209 156 217 -22 22 -223
-206 -352 -401 -32 -48 -40 -71 -44 -120 l-5 -61 -47 48 c-40 40 -53 47 -85
47 -51 0 -78 -20 -99 -75 -9 -25 -20 -45 -24 -45 -10 0 -37 66 -45 113 -6 30
-3 39 17 56 144 126 299 296 323 356 4 11 10 47 14 80 l6 60 35 -1 c19 -1 71
-7 116 -14 69 -11 91 -10 161 4 110 22 123 21 123 -7 0 -29 -48 -98 -91 -129
-47 -35 -169 -201 -157 -214 15 -15 225 210 294 316 56 86 199 202 309 250 98
43 250 120 275 139 40 31 14 37 -53 13 -34 -13 -71 -26 -81 -29 -35 -11 -7 16
71 68 41 28 99 73 129 100 29 27 80 62 113 78 70 36 180 124 275 221 68 69 81
77 101 62z m-731 -50 c74 -40 93 -62 54 -62 -68 0 -178 53 -178 86 0 25 52 15
124 -24z m289 25 c40 -17 64 -44 51 -57 -12 -12 -116 38 -122 58 -5 16 30 16
71 -1z m-968 -45 c70 -35 120 -84 112 -106 -7 -19 -58 -21 -90 -5 -46 23 -207
134 -207 143 0 20 125 -1 185 -32z m354 -18 c77 -42 131 -81 131 -95 0 -5 -15
-9 -33 -9 -36 0 -112 43 -164 93 -62 59 -31 64 66 11z m-603 -94 c70 -34 119
-82 111 -104 -10 -24 -52 -19 -120 15 -98 49 -128 86 -89 108 25 15 33 14 98
-19z m1178 -5 c5 -15 -18 -45 -35 -45 -10 0 -12 43 -2 53 11 12 31 8 37 -8z
m-219 -45 c0 -10 -12 -16 -32 -18 -24 -2 -33 1 -33 12 0 8 6 17 13 20 22 9 52
1 52 -14z m-491 -49 c7 -10 -22 -37 -30 -28 -9 8 3 37 15 37 5 0 12 -4 15 -9z
m226 -20 c0 -24 -18 -37 -32 -23 -8 8 -7 16 2 27 17 21 30 19 30 -4z m408 -17
c33 -9 24 -33 -25 -68 -32 -22 -54 -30 -90 -30 -54 -2 -51 0 -153 -75 -110
-80 -178 -141 -200 -179 -26 -43 -108 -81 -267 -123 -116 -30 -153 -33 -153
-9 0 21 104 121 174 168 39 25 118 80 176 122 120 87 229 153 280 169 74 23
214 36 258 25z m-695 -102 c-24 -32 -71 -68 -79 -60 -8 9 13 44 54 90 35 39
37 40 40 18 2 -13 -5 -34 -15 -48z m-531 -1060 c41 -38 35 -67 -12 -51 -32 12
-73 56 -64 70 10 17 44 9 76 -19z m1143 -572 c79 -64 124 -121 125 -155 0 -29
0 -29 -15 -9 -8 12 -28 24 -45 27 -40 9 -160 124 -160 155 0 35 39 27 95 -18z"/>
<path d="M10833 4453 c9 -2 25 -2 35 0 9 3 1 5 -18 5 -19 0 -27 -2 -17 -5z"/>
</g>
</svg>
