<svg width="1550.67" height="1706.67" viewBox="0 0 1163 1280" xmlns="http://www.w3.org/2000/svg" xmlns:xlink="http://www.w3.org/1999/xlink" overflow="hidden"><g transform="matrix(0.1 0 0 -0.1 0 1280)"><path d="M4320 12785C4284 12777 4192 12752 4115 12731 4038 12709 3928 12679 3870 12665 3747 12634 3703 12610 3616 12529 3514 12434 3503 12392 3539 12238 3558 12158 3580 11969 3580 11885L3580 11845 3453 11822C3312 11797 3280 11783 3280 11744 3280 11676 3319 11660 3481 11660L3600 11660 3600 11551C3600 11491 3595 11429 3590 11415 3575 11375 3478 11286 3418 11256 3389 11241 3356 11222 3344 11212 3309 11183 3269 11124 3258 11083 3244 11032 3234 11022 3191 11014 3129 11004 3121 11000 3063 10949 2969 10867 2835 10801 2730 10786 2705 10782 2674 10774 2659 10769 2645 10764 2578 10696 2509 10618 2377 10467 2288 10389 2201 10345 2125 10307 2100 10279 2100 10232 2100 10211 2094 10186 2087 10176 2070 10153 2011 10141 1913 10140 1868 10140 1820 10136 1805 10130 1791 10125 1739 10091 1689 10056 1573 9972 1474 9912 1275 9807 893 9604 899 9609 736 9416 621 9280 560 9199 537 9155 515 9111 378 8731 250 8360 188 8181 127 8011 114 7981 101 7952 90 7919 90 7909 90 7899 120 7866 159 7833 197 7801 229 7773 229 7770 230 7767 193 7720 149 7665 56 7551 26 7494 9 7396-10 7287 1 7218 47 7153 108 7067 110 7060 98 7013 87 6974 88 6968 121 6915 196 6790 245 6761 325 6795 344 6802 388 6814 423 6821 513 6838 539 6870 657 7106L755 7302 760 7481C763 7601 769 7663 777 7671 784 7678 810 7690 836 7699 902 7721 919 7749 937 7866 976 8122 1023 8247 1177 8506 1276 8673 1329 8776 1347 8835 1353 8858 1369 8872 1414 8894 1453 8914 1480 8935 1496 8962 1513 8988 1554 9022 1618 9064 1775 9167 1878 9217 2036 9269 2204 9324 2398 9376 2405 9368 2422 9352 2433 9209 2434 9020 2435 8818 2433 8801 2412 8748 2399 8716 2366 8665 2335 8631 2277 8565 2277 8566 2261 8447 2253 8388 2239 8347 2201 8272 2174 8219 2131 8108 2104 8026 2034 7808 2002 7767 1765 7584 1604 7460 1311 7161 1084 6890 944 6722 909 6649 944 6595 958 6574 968 6570 1010 6570 1041 6570 1080 6579 1116 6595 1224 6643 1271 6627 1430 6488 1562 6373 1611 6342 1734 6296 1852 6252 2087 6190 2137 6190L2173 6190 2167 5938C2157 5488 2086 5073 1994 4914 1929 4803 1909 4751 1884 4634 1862 4528 1820 4402 1768 4281 1757 4256 1730 4186 1708 4125 1653 3974 1586 3836 1504 3700 1422 3565 1382 3492 1226 3192 1092 2934 1048 2828 986 2618 961 2534 885 2294 817 2085 629 1511 601 1418 590 1318 584 1268 575 1219 569 1209 564 1198 535 1179 506 1166 408 1122 180 865 180 798 180 791 163 755 141 718L102 652 164 603C307 489 484 389 548 387 577 386 589 393 621 428L658 471 670 435C679 408 695 390 731 369 761 350 806 305 849 250 888 201 935 150 953 136 999 101 1095 55 1188 23 1263-2 1269-2 1445 4 1660 12 1751 24 1805 50 1859 76 1910 126 1910 152 1910 206 1768 294 1626 329 1563 345 1539 356 1515 382 1485 413 1337 636 1231 809 1185 885 1110 1049 1110 1074 1110 1101 1141 1112 1262 1130 1330 1141 1393 1152 1402 1155 1425 1164 1451 1229 1544 1514 1611 1717 1647 1807 1732 1985 1790 2106 1845 2232 1855 2265 1864 2297 1883 2345 1896 2371 1909 2397 1958 2512 2006 2627 2136 2942 2153 2971 2296 3121 2370 3198 2447 3293 2490 3357 2604 3526 2722 3775 2813 4035 2833 4090 2869 4184 2894 4243 2919 4303 2983 4469 3036 4613 3134 4880 3202 5046 3218 5062 3229 5073 3304 4957 3346 4866 3371 4810 3372 4804 3361 4745 3345 4656 3347 4602 3370 4544 3413 4430 3485 4100 3496 3962L3503 3882 3462 3861C3402 3831 3374 3776 3356 3655 3348 3600 3332 3526 3321 3490 3310 3454 3283 3351 3260 3261 3238 3171 3204 3058 3185 3009 3145 2908 3105 2720 3091 2574 3084 2492 3075 2456 3046 2391 3026 2346 2999 2264 2985 2207 2944 2045 2854 1742 2784 1528L2719 1331 2762 1293C2862 1205 2920 1143 2920 1121 2920 1109 2886 1010 2844 902 2768 706 2768 704 2773 630 2778 560 2809 447 2829 427 2858 398 3192 393 3253 421 3280 433 3286 446 3292 500L3295 525 3420 524C3541 523 3550 522 3688 477 3812 436 3841 430 3915 430 4088 430 4426 499 4576 565 4735 635 4677 770 4487 770 4461 770 4396 775 4342 781 4222 794 4155 823 4047 909 3966 973 3950 994 3968 1012 3981 1025 4105 1051 4124 1044 4132 1041 4141 1024 4144 1006 4160 922 4327 840 4481 840 4546 840 4571 854 4661 941L4728 1005 4735 1145C4741 1273 4751 1354 4763 1366 4765 1368 4794 1374 4826 1378L4885 1385 4915 1446C4932 1479 4958 1562 4973 1628 5045 1943 5167 2293 5393 2840 5478 3046 5548 3242 5605 3430 5683 3688 5776 3880 5940 4125 6046 4283 6147 4456 6170 4518 6196 4587 6271 4730 6335 4831 6401 4934 6542 5131 6547 5126 6549 5124 6546 5012 6540 4879 6532 4729 6530 4410 6532 4050L6536 3465 6569 3385C6609 3287 6836 2808 7012 2450 7203 2060 7249 1998 7467 1843 7573 1767 7592 1742 7605 1660 7619 1570 7642 1494 7676 1425 7725 1326 7740 1230 7750 960L7759 725 7688 606C7592 444 7573 425 7435 356 7263 269 7192 192 7224 128 7245 85 7284 76 7450 72 7704 66 7981 108 8128 175 8195 206 8258 264 8302 337 8320 366 8339 390 8346 390 8352 390 8363 377 8370 360 8384 325 8383 326 8418 344 8453 362 8493 406 8515 449L8532 483 8594 476C8670 468 8687 479 8758 578L8805 645 8804 775C8803 961 8775 1059 8589 1522 8534 1659 8463 1850 8431 1948 8364 2150 8332 2219 8266 2304 8241 2336 8209 2395 8194 2434 8160 2523 8104 2663 8006 2902 7964 3005 7918 3131 7904 3182 7869 3304 7852 3337 7779 3417 7661 3547 7649 3590 7641 3935 7634 4196 7633 4207 7607 4274 7571 4366 7572 4407 7620 4640 7643 4747 7679 4941 7700 5070 7752 5375 7769 5400 7866 5321 7928 5269 8024 5219 8122 5186 8217 5154 8241 5154 8324 5185 8436 5227 8507 5214 8612 5131 8678 5077 8695 5054 8723 4976 8752 4898 8809 4800 8830 4792 8838 4789 8889 4756 8942 4718 9148 4571 9319 4549 9358 4665 9389 4758 9381 5395 9344 5750 9329 5893 9293 6105 9180 6695 9083 7205 9080 7223 9080 7282L9080 7339 9195 7462C9356 7634 9628 7890 9670 7908 9722 7931 9826 7928 9875 7903 9980 7848 10281 7567 10441 7375 10521 7280 10563 7238 10597 7220 10645 7195 10645 7194 10666 7110 10677 7063 10701 6984 10718 6933 10736 6883 10750 6825 10750 6805 10750 6759 10778 6625 10796 6580 10804 6561 10819 6536 10829 6525 10839 6514 10848 6488 10849 6467 10851 6417 10886 6248 10907 6186 10920 6145 10922 6109 10917 5976 10911 5820 10902 5756 10865 5621 10849 5559 10849 5555 10874 5421 10888 5346 10902 5256 10906 5220 10916 5121 10924 5106 10963 5114 11035 5128 11028 5135 11084 4989 11161 4787 11197 4732 11244 4744 11284 4754 11298 4814 11277 4890 11267 4923 11260 4954 11260 4959 11260 4964 11286 4966 11318 4963 11354 4960 11385 4962 11398 4969 11437 4990 11552 5133 11583 5200 11610 5255 11614 5276 11614 5350 11615 5449 11600 5484 11552 5493 11516 5500 11507 5522 11485 5660 11465 5785 11459 5804 11416 5875 11396 5908 11380 5939 11380 5944 11380 5949 11398 5950 11420 5946 11454 5941 11464 5944 11493 5970 11512 5986 11539 6000 11552 6000 11566 6000 11587 6011 11600 6025 11639 6066 11639 6142 11600 6291 11569 6409 11567 6426 11560 6670 11556 6810 11549 6934 11545 6945 11540 6956 11527 6979 11515 6995 11503 7012 11474 7061 11450 7105 11426 7149 11394 7204 11378 7228 11343 7279 11309 7353 11265 7477 11236 7559 11213 7604 11133 7738 11121 7758 11107 7804 11101 7840 11087 7929 11025 8050 10950 8133 10917 8171 10878 8224 10864 8251 10841 8297 10836 8301 10812 8295 10789 8290 10778 8297 10743 8332 10720 8356 10680 8404 10653 8440 10622 8482 10589 8513 10558 8530 10533 8544 10497 8575 10478 8600 10448 8640 10437 8647 10379 8661 10342 8670 10308 8680 10302 8684 10296 8687 10287 8714 10280 8742 10260 8836 10207 8905 10045 9050 9922 9160 9877 9190 9834 9190 9793 9190 9762 9217 9754 9258 9746 9297 9751 9298 9876 9270 9976 9248 10096 9244 10135 9262 10164 9275 10166 9283 10145 9300 10131 9311 10131 9315 10147 9333 10157 9344 10192 9371 10225 9393 10355 9481 10409 9542 10442 9640 10461 9699 10464 9731 10468 9996 10472 10310 10465 10401 10430 10447 10415 10468 10407 10500 10401 10557 10389 10672 10339 10763 10325 10696 10322 10682 10318 10659 10315 10645 10308 10611 10296 10614 10271 10653 10260 10670 10245 10693 10238 10702 10228 10716 10228 10726 10238 10754 10258 10809 10226 10860 10171 10860 10162 10860 10141 10874 10124 10891 10062 10958 9986 10961 9918 10901 9877 10865 9884 10845 9966 10774 10001 10743 10030 10714 10030 10709 10030 10684 9905 10720 9757 10786 9664 10828 9598 10841 9585 10820 9573 10801 9509 10810 9437 10841 9391 10861 9341 10874 9299 10877 9241 10882 9230 10880 9211 10861 9200 10850 9190 10829 9190 10817 9190 10789 9161 10760 9133 10760 9107 10760 8986 10719 8933 10691 8902 10676 8873 10670 8823 10670 8749 10670 8741 10666 8644 10585 8592 10541 8600 10542 8420 10550 8347 10553 8329 10550 8290 10530 8187 10478 8090 10395 8013 10292 7985 10255 7892 10217 7774 10193 7695 10178 7683 10178 7645 10191 7610 10204 7597 10204 7566 10193 7545 10186 7498 10178 7461 10175 7351 10165 7263 10150 7100 10113 6739 10032 6578 10015 6255 10024 5998 10031 5869 10043 5795 10067 5768 10076 5675 10119 5590 10164 5384 10272 5264 10327 5204 10341 5107 10364 5087 10374 5055 10420 5024 10465 5016 10469 4923 10486 4909 10489 4892 10506 4880 10530 4836 10616 4686 10753 4562 10820 4446 10883 4481 10900 4631 10854 4696 10835 4731 10830 4787 10832 4893 10837 4933 10872 4945 10972 4949 11001 4961 11031 4976 11049 5011 11091 5008 11131 4965 11169 4946 11186 4930 11205 4930 11213 4930 11233 4977 11274 5043 11310 5106 11345 5120 11366 5121 11433 5122 11494 5129 11505 5197 11549 5264 11592 5284 11627 5259 11657 5251 11666 5211 11697 5170 11726 5067 11798 5055 11813 5056 11865 5057 11922 5078 11952 5144 11994 5227 12047 5251 12097 5213 12135 5196 12153 5169 12153 4988 12133L4930 12127 4851 12291C4807 12381 4757 12497 4739 12548 4703 12652 4662 12708 4579 12760 4536 12788 4518 12794 4457 12796 4417 12798 4356 12793 4320 12785ZM3804 11215C3908 11162 3990 11112 3990 11099 3990 11085 3977 11088 3909 11119 3874 11135 3805 11160 3755 11175 3648 11208 3610 11226 3610 11244 3610 11284 3690 11271 3804 11215ZM7596 10073C7639 10009 7715 9740 7729 9605 7738 9515 7749 9489 7767 9512 7780 9529 7797 9583 7805 9638 7815 9698 7846 9730 7942 9776L8025 9815 8318 9818 8610 9822 8610 9712 8610 9602 8493 9580C8392 9561 8359 9559 8235 9565L8094 9572 8017 9537C7920 9492 7902 9477 7844 9401 7788 9327 7728 9279 7652 9248 7600 9227 7583 9226 7450 9229 7097 9239 6948 9236 6891 9216 6780 9178 6700 9069 6700 8958 6700 8888 6713 8872 6796 8839 6843 8821 6875 8816 6950 8815 7045 8815 7045 8815 7114 8858 7153 8881 7190 8900 7197 8900 7216 8900 7213 8876 7190 8855 7154 8822 7167 8717 7212 8680 7232 8664 7232 8660 7220 8631 7208 8600 7136 8530 7117 8530 7099 8530 7009 8480 6969 8448 6924 8412 6900 8374 6900 8338 6900 8301 6845 8216 6801 8186 6671 8096 6234 8020 5921 8033 5769 8039 5703 8053 5568 8106 5447 8153 5398 8160 5190 8159 4967 8158 4966 8157 4962 8097 4960 8065 4953 8047 4942 8041 4933 8036 4877 8023 4818 8011 4674 7982 4592 7952 4566 7917 4550 7896 4548 7885 4556 7872 4578 7838 4611 7829 4698 7836 4743 7839 4780 7838 4780 7834 4779 7829 4773 7814 4765 7800 4743 7761 4747 7723 4779 7677 4818 7620 4947 7497 4990 7475 5040 7449 5117 7430 5173 7430 5221 7430 5229 7435 5268 7488 5284 7509 5299 7512 5435 7525 5606 7542 5638 7548 5698 7579 5722 7591 5743 7600 5745 7598 5747 7596 5744 7573 5738 7547 5730 7507 5731 7496 5744 7481 5756 7467 5759 7452 5754 7424 5741 7339 5807 7325 6174 7335L6433 7342 6403 7288C6386 7259 6329 7155 6276 7057 6222 6958 6150 6832 6116 6777 5985 6564 5676 5957 5465 5500 5401 5360 5256 5056 5143 4826 4893 4314 4762 4028 4698 3850 4508 3329 4443 3133 4355 2805 4324 2690 4290 2566 4279 2531 4268 2495 4253 2427 4245 2379 4224 2244 4131 2030 4020 1858 3998 1824 3980 1789 3980 1779 3980 1769 3996 1746 4015 1728 4044 1703 4048 1694 4038 1684 4018 1665 3819 1582 3785 1578 3758 1575 3755 1578 3752 1606 3745 1673 3893 2261 3961 2439 3983 2497 4037 2642 4080 2760 4123 2878 4190 3061 4230 3165 4270 3270 4338 3459 4380 3585 4423 3712 4475 3862 4496 3920 4533 4022 4534 4029 4534 4155 4533 4349 4463 4798 4380 5150 4359 5241 4312 5456 4275 5628 4239 5800 4191 6005 4169 6083 4097 6336 4053 6606 4062 6744 4066 6798 4076 6836 4104 6900 4172 7054 4174 7065 4161 7139 4154 7175 4146 7250 4143 7305 4136 7436 4150 7494 4240 7701 4390 8044 4481 8288 4506 8412 4515 8458 4540 8545 4562 8605 4675 8918 4711 9058 4755 9357 4768 9447 4784 9538 4790 9561 4800 9598 4803 9601 4827 9595 4875 9583 5534 9319 5575 9295 5634 9262 5773 9215 5891 9189 6045 9155 6162 9158 6315 9197 6562 9262 6782 9302 7290 9375 7463 9399 7619 9424 7635 9428 7693 9444 7703 9509 7671 9645 7642 9765 7592 9915 7553 10002 7533 10045 7520 10086 7524 10095 7533 10121 7572 10109 7596 10073ZM8530 9442C8530 9437 8520 9425 8508 9414 8496 9404 8489 9400 8492 9405 8495 9411 8500 9423 8503 9433 8509 9450 8530 9457 8530 9442ZM8787 9435C8922 9406 9232 9322 9242 9312 9259 9295 9246 9286 9153 9245 9105 9224 9037 9189 9002 9168 8884 9098 8813 9096 8730 9161 8647 9227 8628 9266 8640 9346 8658 9458 8665 9462 8787 9435ZM8450 9365C8450 9342 8389 9278 8351 9263 8310 9246 8140 9233 8140 9247 8140 9269 8326 9350 8378 9350 8394 9350 8415 9357 8426 9365 8450 9383 8450 9383 8450 9365ZM8585 9202C8591 9198 8606 9180 8619 9162 8653 9114 8697 9094 8833 9065L8861 9059 8792 8982C8754 8940 8654 8820 8569 8715 8485 8611 8379 8479 8333 8423 8220 8282 8202 8244 8175 8092 8144 7909 8129 7734 8119 7431 8114 7259 8106 7112 8102 7104 8096 7094 8079 7104 8031 7146 7953 7214 7872 7256 7780 7275 7741 7283 7693 7298 7672 7308 7562 7364 7175 7571 7166 7580 7158 7588 7160 7594 7170 7600 7216 7629 7365 7582 7492 7498 7599 7428 7798 7328 7814 7337 7876 7373 8033 7487 8041 7502 8061 7539 8035 7540 7982 7504 7953 7485 7897 7451 7858 7430L7787 7392 7697 7436C7648 7461 7569 7506 7522 7537 7369 7637 7245 7673 7153 7644 7102 7628 7101 7628 7046 7653 7015 7667 6990 7682 6990 7686 6990 7690 7019 7739 7055 7795 7115 7889 7132 7930 7112 7930 7101 7930 7069 7893 7046 7855 7017 7808 6978 7770 6958 7770 6916 7770 6944 7813 7150 8070 7286 8241 7314 8279 7306 8287 7284 8309 7083 8081 6954 7886 6922 7838 6914 7815 6910 7766L6905 7705 6858 7753C6818 7793 6805 7800 6773 7800 6722 7800 6695 7780 6674 7725 6665 7700 6654 7680 6650 7680 6640 7680 6613 7746 6605 7793 6599 7823 6602 7832 6622 7849 6766 7975 6921 8145 6945 8205 6949 8216 6955 8252 6959 8285L6965 8345 7000 8344C7019 8343 7071 8337 7116 8330 7185 8319 7207 8320 7277 8334 7387 8356 7400 8355 7400 8327 7400 8298 7352 8229 7309 8198 7262 8163 7140 7997 7152 7984 7167 7969 7377 8194 7446 8300 7502 8386 7645 8502 7755 8550 7853 8593 8005 8670 8030 8689 8070 8720 8044 8726 7977 8702 7943 8689 7906 8676 7896 8673 7861 8662 7889 8689 7967 8741 8008 8769 8066 8814 8096 8841 8125 8868 8176 8903 8209 8919 8279 8955 8389 9043 8484 9140 8552 9209 8565 9217 8585 9202ZM7854 9152C7928 9112 7947 9090 7908 9090 7840 9090 7730 9143 7730 9176 7730 9201 7782 9191 7854 9152ZM8143 9177C8183 9160 8207 9133 8194 9120 8182 9108 8078 9158 8072 9178 8067 9194 8102 9194 8143 9177ZM7175 9132C7245 9097 7295 9048 7287 9026 7280 9007 7229 9005 7197 9021 7151 9044 6990 9155 6990 9164 6990 9184 7115 9163 7175 9132ZM7529 9114C7606 9072 7660 9033 7660 9019 7660 9014 7645 9010 7627 9010 7591 9010 7515 9053 7463 9103 7401 9162 7432 9167 7529 9114ZM6926 9020C6996 8986 7045 8938 7037 8916 7027 8892 6985 8897 6917 8931 6819 8980 6789 9017 6828 9039 6853 9054 6861 9053 6926 9020ZM8104 9015C8109 9000 8086 8970 8069 8970 8059 8970 8057 9013 8067 9023 8078 9035 8098 9031 8104 9015ZM7885 8970C7885 8960 7873 8954 7853 8952 7829 8950 7820 8953 7820 8964 7820 8972 7826 8981 7833 8984 7855 8993 7885 8985 7885 8970ZM7394 8921C7401 8911 7372 8884 7364 8893 7355 8901 7367 8930 7379 8930 7384 8930 7391 8926 7394 8921ZM7620 8901C7620 8877 7602 8864 7588 8878 7580 8886 7581 8894 7590 8905 7607 8926 7620 8924 7620 8901ZM8028 8884C8061 8875 8052 8851 8003 8816 7971 8794 7949 8786 7913 8786 7859 8784 7862 8786 7760 8711 7650 8631 7582 8570 7560 8532 7534 8489 7452 8451 7293 8409 7177 8379 7140 8376 7140 8400 7140 8421 7244 8521 7314 8568 7353 8593 7432 8648 7490 8690 7610 8777 7719 8843 7770 8859 7844 8882 7984 8895 8028 8884ZM7333 8782C7309 8750 7262 8714 7254 8722 7246 8731 7267 8766 7308 8812 7343 8851 7345 8852 7348 8830 7350 8817 7343 8796 7333 8782ZM6802 7722C6843 7684 6837 7655 6790 7671 6758 7683 6717 7727 6726 7741 6736 7758 6770 7750 6802 7722ZM7945 7150C8024 7086 8069 7029 8070 6995 8070 6966 8070 6966 8055 6986 8047 6998 8027 7010 8010 7013 7970 7022 7850 7137 7850 7168 7850 7203 7889 7195 7945 7150Z" fill="#FFFFFF"/><path d="M10833 4453C10842 4451 10858 4451 10868 4453 10877 4456 10869 4458 10850 4458 10831 4458 10823 4456 10833 4453Z" fill="#FFFFFF"/></g></svg>